<svg width="425.000000" height="393.000000" viewBox="0 0 425 393" fill="none" xmlns="http://www.w3.org/2000/svg" xmlns:xlink="http://www.w3.org/1999/xlink">
	<desc>
			Created with Pixso.
	</desc>
	<defs>
		<clipPath id="clip1_24">
			<rect id="Group 12 1" rx="-0.500000" width="424.000000" height="392.000000" transform="translate(0.500000 0.500000)" fill="white" fill-opacity="0"/>
		</clipPath>
	</defs>
	<rect id="Group 12 1" rx="-0.500000" width="424.000000" height="392.000000" transform="translate(0.500000 0.500000)" fill="#FFFFFF" fill-opacity="0"/>
	<g clip-path="url(#clip1_24)">
		<path id="Oval" d="M55.3 243.1C93.24 332.53 258.76 385.01 301.96 312.51C345.15 240.02 235.86 226.86 197.22 151.95C158.59 77.03 128.56 30.27 72.74 47.34C16.91 64.41 17.36 153.66 55.3 243.1Z" fill="#6259FF" fill-opacity="1.000000" fill-rule="evenodd"/>
		<path id="Oval" d="M323.09 301.15C383.77 272.87 415.93 157.62 364.97 129.62C314 101.62 307.57 177.2 256.91 205.61C206.24 234.02 174.77 255.81 187.86 293.85C200.96 331.88 262.41 329.43 323.09 301.15Z" fill="#F9818E" fill-opacity="1.000000" fill-rule="evenodd"/>
		<path id="Path-2" d="M255.3 169.09L265.91 158.29" stroke="#FFFFFF" stroke-opacity="1.000000" stroke-width="5.000000" stroke-linejoin="bevel" stroke-linecap="round"/>
		<path id="Path-2-Copy-2" d="M299.46 174.58L286.95 164.07" stroke="#FFFFFF" stroke-opacity="1.000000" stroke-width="5.000000" stroke-linejoin="bevel" stroke-linecap="round"/>
		<path id="Path-2-Copy-3" d="M277.56 188.99L270.65 203.78" stroke="#FFFFFF" stroke-opacity="1.000000" stroke-width="5.000000" stroke-linejoin="bevel" stroke-linecap="round"/>
		<path id="Oval" d="M157.3 179.89C157.3 216.89 127.3 246.89 90.3 246.89C53.3 246.89 23.3 216.89 23.3 179.89C23.3 142.88 53.3 112.89 90.3 112.89C127.3 112.89 157.3 142.88 157.3 179.89Z" fill="#FFAF7E" fill-opacity="1.000000" fill-rule="evenodd"/>
	</g>
</svg>
