<svg width="80.000000" height="80.000000" viewBox="0 0 80 80" fill="none" xmlns="http://www.w3.org/2000/svg" xmlns:xlink="http://www.w3.org/1999/xlink">
	<desc>
			Created with Pixso.
	</desc>
	<defs/>
	<circle id="Oval" cx="40.000000" cy="40.000000" r="40.000000" fill="#F9818E" fill-opacity="1.000000"/>
	<path id="Path" d="M48.46 79.16C49.23 79.01 49.99 78.84 50.75 78.65C52.03 78.29 53.3 77.87 54.54 77.38C55.79 76.9 57.01 76.36 58.2 75.75C59.39 75.14 60.55 74.48 61.67 73.76C62.79 73.03 63.88 72.26 64.93 71.43C65.97 70.6 66.98 69.71 67.94 68.78C68.89 67.85 69.8 66.87 70.66 65.85C71.52 64.83 72.33 63.77 73.09 62.66C73.84 61.56 74.54 60.42 75.18 59.25C75.82 58.08 76.4 56.88 76.92 55.65C77.44 54.42 77.9 53.16 78.29 51.88C78.63 50.77 78.92 49.64 79.16 48.49L55.37 24.69C51.13 20.45 45.59 18.33 40.04 18.33C34.49 18.33 28.94 20.45 24.69 24.69C16.21 33.18 16.21 46.9 24.69 55.39L48.46 79.16Z" fill="#E96170" fill-opacity="1.000000" fill-rule="nonzero"/>
	<path id="Shape" d="M40.0032 18.3333C45.5415 18.3333 51.0784 20.4488 55.3137 24.6843C63.7842 33.1554 63.7842 46.8423 55.3137 55.3134C46.843 63.7844 33.1567 63.7844 24.6863 55.3134C16.2156 46.8423 16.2156 33.1554 24.6863 24.6843C28.9214 20.4488 34.4648 18.3333 40.0032 18.3333ZM48.9956 33.6772C49.2454 33.4824 49.552 33.3612 49.8674 33.3323C49.9238 33.3294 49.9802 33.3294 50.0366 33.3323C51.4236 33.3521 52.1147 35.5287 50.9932 36.3451L37.6672 46.34C37.0327 46.8135 36.0542 46.7432 35.4939 46.1839L28.8311 39.5206C27.5564 38.2966 29.9626 35.8902 31.1865 37.165L36.8279 42.8067L48.9956 33.6772Z" clip-rule="evenodd" fill="#FFFFFF" fill-opacity="1.000000" fill-rule="evenodd"/>
</svg>
