<svg width="40.000000" height="40.000000" viewBox="0 0 40 40" fill="none" xmlns="http://www.w3.org/2000/svg" xmlns:xlink="http://www.w3.org/1999/xlink">
	<desc>
			Created with Pixso.
	</desc>
	<defs/>
	<circle id="Oval" cx="20.000000" cy="20.000000" r="20.000000" fill="#483EFF" fill-opacity="1.000000"/>
	<circle id="Oval" cx="20.000000" cy="20.000000" r="20.000000" stroke="#979797" stroke-opacity="0" stroke-width="0.000000"/>
	<path id="Shape" d="M26.6664 13L13.3336 13C11.4927 13 10.0004 14.4923 10.0004 16.3332L10.0004 23.5263C9.97961 24.9435 10.8286 26.229 12.1403 26.7662C13.3777 27.2664 14.7957 26.9478 15.7002 25.9662L18.5201 22.9996L21.4799 22.9996L24.2998 25.9662C25.2033 26.9495 26.6224 27.2684 27.8597 26.7662C29.1714 26.229 30.0204 24.9435 29.9996 23.5263L29.9996 16.3332C29.9996 14.4923 28.5073 13 26.6664 13ZM16.0002 18.9998L17.3334 18.9998C17.7016 18.9998 18.0001 18.7013 18.0001 18.3331C18.0001 17.965 17.7016 17.6665 17.3334 17.6665L16.0002 17.6665L16.0002 16.3332C16.0002 15.965 15.7017 15.6666 15.3335 15.6666C14.9653 15.6666 14.6669 15.965 14.6669 16.3332L14.6669 17.6665L13.3336 17.6665C12.9654 17.6665 12.6669 17.965 12.6669 18.3331C12.6669 18.7013 12.9654 18.9998 13.3336 18.9998L14.6669 18.9998L14.6669 20.3331C14.6669 20.7012 14.9653 20.9997 15.3335 20.9997C15.7017 20.9997 16.0002 20.7012 16.0002 20.3331L16.0002 18.9998ZM24.6665 20.9997C23.1938 20.9997 21.9999 19.8058 21.9999 18.3331C21.9999 16.8604 23.1938 15.6666 24.6665 15.6666C26.1392 15.6666 27.3331 16.8604 27.3331 18.3331C27.3331 19.0404 27.0521 19.7186 26.552 20.2187C26.052 20.7188 25.3737 20.9997 24.6665 20.9997ZM24.6665 19.6664C25.4028 19.6664 25.9998 19.0695 25.9998 18.3331C25.9998 17.5968 25.4028 16.9998 24.6665 16.9998C23.9301 16.9998 23.3332 17.5968 23.3332 18.3331C23.3332 19.0695 23.9301 19.6664 24.6665 19.6664Z" clip-rule="evenodd" fill="#FFFFFF" fill-opacity="1.000000" fill-rule="evenodd"/>
</svg>
